<?xml version="1.0" standalone="no"?>
<!DOCTYPE svg PUBLIC "-//W3C//DTD SVG 20010904//EN"
 "http://www.w3.org/TR/2001/REC-SVG-20010904/DTD/svg10.dtd">
<svg version="1.0" xmlns="http://www.w3.org/2000/svg"
 width="200.000000pt" height="200.000000pt" viewBox="0 0 200.000000 200.000000"
 preserveAspectRatio="xMidYMid meet">
<metadata>
Created by potrace 1.14, written by Peter Selinger 2001-2017
</metadata>
<g transform="translate(0.000000,200.000000) scale(0.100000,-0.100000)"
fill="#000000" stroke="none">
<path d="M0 1000 l0 -1000 1000 0 1000 0 0 1000 0 1000 -1000 0 -1000 0 0
-1000z m1204 631 c61 -41 76 -126 31 -180 -54 -64 -140 -62 -193 5 -30 38 -39
40 -137 19 -231 -49 -385 -239 -385 -475 0 -75 31 -210 48 -210 4 0 65 101
136 225 71 124 134 225 140 225 6 0 72 -61 146 -135 74 -74 137 -135 141 -135
3 0 66 106 140 235 74 129 139 234 146 235 21 0 93 -92 128 -164 46 -94 65
-173 65 -271 -1 -326 -246 -591 -570 -612 -57 -4 -95 -12 -116 -24 -95 -57
-218 34 -184 137 33 98 154 121 217 40 24 -30 75 -35 158 -12 224 59 366 244
364 475 0 87 -24 191 -45 198 -6 2 -69 -98 -140 -222 -71 -123 -132 -225 -137
-225 -4 0 -70 63 -148 141 -77 78 -142 139 -143 138 -3 -4 -95 -164 -192 -334
-95 -166 -86 -160 -139 -100 -52 59 -108 165 -130 250 -19 75 -19 211 0 294
61 257 309 458 572 463 51 1 80 6 100 19 36 24 90 24 127 0z"/>
<path d="M1100 1549 c-9 -16 -8 -26 5 -45 19 -29 46 -31 70 -4 15 17 16 24 7
45 -15 32 -66 35 -82 4z"/>
<path d="M825 500 c-37 -41 24 -97 63 -58 18 18 14 56 -7 68 -27 14 -35 13
-56 -10z"/>
</g>
</svg>
